<svg xmlns="http://www.w3.org/2000/svg" width="28" height="28" viewBox="0 0 28 28">
    <g fill="none" fill-rule="evenodd">
        <circle cx="13.819" cy="13.819" r="13.819" fill="#B5B5B5"/>
        <g fill="#FEFEFE">
            <path d="M20.24 17.21a3.073 3.073 0 0 1-3.072 3.072h-6.933a3.074 3.074 0 0 1-3.07-3.072v-6.933a3.073 3.073 0 0 1 3.07-3.071h6.933a3.071 3.071 0 0 1 3.071 3.07v6.934zM17.09 5.69h-6.775a4.626 4.626 0 0 0-4.625 4.626v6.775a4.624 4.624 0 0 0 4.625 4.624h6.775a4.623 4.623 0 0 0 4.625-4.624v-6.775A4.625 4.625 0 0 0 17.09 5.69z"/>
            <path d="M13.564 16.247a2.682 2.682 0 1 1 .003-5.363 2.682 2.682 0 0 1-.003 5.363m0-6.818a4.135 4.135 0 1 0 .001 8.27 4.135 4.135 0 0 0-.001-8.27M18.356 9.309a.776.776 0 1 0 0 1.552.776.776 0 0 0 0-1.552"/>
        </g>
    </g>
</svg>
