<svg xmlns="http://www.w3.org/2000/svg" xmlns:xlink="http://www.w3.org/1999/xlink" width="28" height="28" viewBox="0 0 28 28">
    <defs>
        <path id="a" d="M0 .117h5.605v7.059H0z"/>
        <path id="c" d="M.154.02H5.56v7.528H.154z"/>
    </defs>
    <g fill="none" fill-rule="evenodd">
        <circle cx="13.819" cy="13.819" r="13.819" fill="#B5B5B5"/>
        <path fill="#FFF" d="M15.445 14.58c-.508 0-.92-.522-.92-1.167s.412-1.167.92-1.167c.509 0 .921.522.921 1.167s-.412 1.167-.92 1.167m0-4.012c-1.348 0-2.44 1.274-2.44 2.845 0 1.571 1.092 2.845 2.44 2.845 1.346 0 2.438-1.274 2.438-2.845 0-1.571-1.092-2.845-2.439-2.845"/>
        <g transform="translate(3.252 8.942)">
            <mask id="b" fill="#fff">
                <use xlink:href="#a"/>
            </mask>
            <path fill="#FFF" d="M2.8 5.648c-.554 0-1.003-.429-1.003-.958 0-.53.449-.958 1.003-.958.553 0 1.002.429 1.002.958 0 .53-.449.958-1.002.958m.536-3.561s-1.185-.011-1.595.657V.117S.108.137 0 .121v6.867H1.74v-.399s.523.587 1.447.587c0 0 2.392-.064 2.404-2.275 0 0 .323-2.584-2.256-2.814" mask="url(#b)"/>
        </g>
        <path fill="#FFF" d="M9.755 8.942v1.69s.792.181.792.833v4.793h1.644v-4.841s.189-2.367-2.436-2.475"/>
        <g transform="translate(18.697 11.38)">
            <mask id="d" fill="#fff">
                <use xlink:href="#c"/>
            </mask>
            <path fill="#FFF" d="M2.94 3.63c-.563 0-1.02-.454-1.02-1.015 0-.56.457-1.014 1.02-1.014s1.02.454 1.02 1.014S3.503 3.63 2.94 3.63zM3.888.66C3.343-.07 2.454.025 2.454.025.2.189.154 2.253.154 2.253v.755c0 1.99 2.051 2.137 2.051 2.137 1.446 0 1.648-.64 1.648-.64.012 1.58-1.02 1.487-1.02 1.487h-.45v1.556h.747c2.454 0 2.43-2.403 2.43-2.403V.153H3.888v.508z" mask="url(#d)"/>
        </g>
    </g>
</svg>
