<?xml version="1.0" encoding="UTF-8"?>
<svg width="40px" height="40px" viewBox="0 0 40 40" version="1.1" xmlns="http://www.w3.org/2000/svg" xmlns:xlink="http://www.w3.org/1999/xlink">
    <title>ic_experience_40x40</title>
    <g id="Symbol" stroke="none" stroke-width="1" fill="none" fill-rule="evenodd">
        <g id="Verticals-Icon/1.-Experience/40x40">
            <rect id="empty_space" fill-opacity="0" fill="#FFFFFF" x="0" y="0" width="40" height="40"></rect>
            <g id="ic_local_activity" transform="translate(5.500000, 9.000000)" fill-rule="nonzero">
                <path d="M26.1,11.6 C26.1,13.20225 27.39775,14.5 29,14.5 L29,14.5 L29,20.3 C29,21.90225 27.70225,23.2 26.1,23.2 L26.1,23.2 L2.9,23.2 C1.29775,23.2 0,21.90225 0,20.3 L0,20.3 L0.00725,14.5 C1.60225,14.5 2.9,13.20225 2.9,11.6 L2.9,11.6 Z" id="Shape" fill="#FA9A00"></path>
                <path d="M26.1,0 C26.1,1.60225 27.39775,2.9 29,2.9 L29,2.9 L29,8.7 C29,10.30225 27.70225,11.6 26.1,11.6 L26.1,11.6 L2.9,11.6 C1.29775,11.6 0,10.30225 0,8.7 L0,8.7 L0.00725,2.9 C1.60225,2.9 2.9,1.60225 2.9,0 L2.9,0 Z" id="Shape" fill="#FFBF00" transform="translate(14.500000, 5.800000) scale(1, -1) translate(-14.500000, -5.800000) "></path>
                <path d="M16.8234394,16.529352 L14.5,15.0366395 L14.5,15.0366395 L12.1765606,16.529352 C11.7119063,16.8278729 11.0932304,16.6931952 10.7947095,16.2285408 C10.6434105,15.9930407 10.5977408,15.7049081 10.6687988,15.4341639 L11.3696028,12.7639711 L11.3696028,12.7639711 L9.23354584,11.0174687 C8.80598525,10.6678826 8.74277437,10.0378808 9.09236038,9.61032025 C9.26928775,9.39392953 9.52870556,9.26146432 9.80773637,9.24503141 L12.5654145,9.08262398 L12.5654145,9.08262398 L13.5688617,6.52042379 C13.7702614,6.00617033 14.3504129,5.75255219 14.8646663,5.95395184 C15.1241793,6.05558621 15.3295039,6.26091079 15.4311383,6.52042379 L16.4345855,9.08262398 L16.4345855,9.08262398 L19.1922636,9.24503141 C19.7435931,9.27750076 20.1642123,9.7507632 20.131743,10.3020927 C20.1153101,10.5811235 19.9828449,10.8405413 19.7664542,11.0174687 L17.6303972,12.7639711 L17.6303972,12.7639711 L18.3312012,15.4341639 C18.4714025,15.9683568 18.1520092,16.5150613 17.6178163,16.6552626 C17.3470721,16.7263206 17.0589395,16.6806509 16.8234394,16.529352 Z" id="Path" fill="#FFFFFF"></path>
            </g>
        </g>
    </g>
</svg>